<svg width="172" height="155" viewBox="0 0 172 155" fill="none" xmlns="http://www.w3.org/2000/svg">
<path d="M6.3374 37.1571L34.3974 21.8096V59.0563L74.2123 80.8658V111.561L6.3374 74.4037V37.1571Z" fill="url(#paint0_linear_28_651)"/>
<path d="M6.3374 117.933V87.3279L74.2123 124.395V155L6.3374 117.933Z" fill="url(#paint1_linear_28_651)"/>
<path d="M86.3463 74.2242L46.1523 52.2352V15.3475L74.2123 0.00012207V36.8878L114.406 58.9665V139.742L86.3463 155V74.2242Z" fill="url(#paint2_linear_28_651)"/>
<path d="M126.161 52.5045L114.217 45.9526L142.277 30.6052L154.221 37.0936V117.933L126.161 133.28V52.5045Z" fill="url(#paint3_linear_28_651)"/>
<rect x="113.232" y="65.041" width="48.3708" height="24.9796" rx="2.08163" fill="#ECEDFF"/>
<path d="M11.327 86.0001V70.8278H9.50343V77.3511H3.28235V70.8278H1.46918V86.0001H3.28235V78.9871H9.50343V86.0001H11.327ZM22.0394 86.0001H24.0505V85.8334C23.9255 85.5208 23.8282 85.1561 23.7587 84.7392C23.6893 84.3155 23.6545 83.916 23.6545 83.5409V78.2993C23.6545 77.6671 23.5399 77.1149 23.3107 76.6425C23.0814 76.1701 22.7688 75.7741 22.3728 75.4545C21.9699 75.1419 21.494 74.9092 20.9452 74.7563C20.3964 74.5966 19.8024 74.5167 19.1633 74.5167C18.4616 74.5167 17.8329 74.6139 17.2772 74.8084C16.7283 75.003 16.2629 75.2565 15.8808 75.5691C15.4918 75.8887 15.1931 76.2465 14.9846 76.6425C14.7832 77.0384 14.679 77.4414 14.672 77.8512H16.6102C16.6102 77.615 16.6658 77.3893 16.777 77.1739C16.8951 76.9516 17.0583 76.7606 17.2667 76.6008C17.4752 76.441 17.7287 76.3125 18.0274 76.2152C18.3331 76.118 18.677 76.0693 19.0591 76.0693C19.469 76.0693 19.8371 76.1214 20.1637 76.2256C20.4971 76.3298 20.7785 76.4757 21.0077 76.6633C21.237 76.8578 21.4141 77.0905 21.5392 77.3615C21.6642 77.6324 21.7267 77.9381 21.7267 78.2785V79.1642H19.6218C18.8368 79.1642 18.1247 79.2407 17.4856 79.3935C16.8534 79.5463 16.3115 79.7756 15.86 80.0812C15.4084 80.3939 15.0576 80.7829 14.8075 81.2483C14.5643 81.7138 14.4428 82.2557 14.4428 82.874C14.4428 83.3464 14.5331 83.7875 14.7137 84.1974C14.9013 84.6003 15.1653 84.9476 15.5057 85.2394C15.8391 85.5381 16.2455 85.7743 16.7249 85.948C17.2112 86.1217 17.753 86.2085 18.3505 86.2085C18.7187 86.2085 19.066 86.1703 19.3925 86.0939C19.719 86.0175 20.0282 85.9133 20.32 85.7813C20.6048 85.6493 20.8653 85.4965 21.1015 85.3228C21.3447 85.1491 21.5635 84.965 21.758 84.7705C21.7788 85.0067 21.8101 85.2359 21.8518 85.4583C21.9004 85.6736 21.9629 85.8542 22.0394 86.0001ZM18.6318 84.5308C18.2567 84.5308 17.9267 84.4822 17.6419 84.3849C17.3571 84.2877 17.1209 84.1522 16.9333 83.9785C16.7457 83.8118 16.6033 83.6103 16.506 83.3741C16.4157 83.1379 16.3706 82.8809 16.3706 82.603C16.3706 82.3112 16.4227 82.0507 16.5269 81.8215C16.638 81.5922 16.7978 81.3942 17.0062 81.2275C17.298 80.9913 17.6905 80.8176 18.1838 80.7065C18.6839 80.5884 19.2675 80.5293 19.9344 80.5293H21.7267V82.8114C21.6156 83.0337 21.4628 83.2491 21.2682 83.4575C21.0737 83.659 20.8445 83.8396 20.5805 83.9994C20.3095 84.1592 20.0108 84.2877 19.6843 84.3849C19.3578 84.4822 19.007 84.5308 18.6318 84.5308ZM34.8358 74.5167C34.0161 74.5167 33.2831 74.6973 32.6371 75.0585C31.9979 75.4128 31.4491 75.8991 30.9906 76.5174L30.9802 76.2361L30.8968 74.7251H29.0628V86.0001H31.001V78.7683C31.1261 78.4209 31.2824 78.1083 31.47 77.8304C31.6645 77.5456 31.8903 77.3059 32.1473 77.1114C32.4321 76.8891 32.7656 76.7224 33.1477 76.6112C33.5298 76.4931 33.957 76.4341 34.4294 76.4341C34.7976 76.4341 35.1484 76.4549 35.4819 76.4966C35.8223 76.5313 36.1801 76.5904 36.5552 76.6737L36.8157 74.7876C36.6212 74.7042 36.3294 74.6382 35.9404 74.5896C35.5583 74.541 35.1901 74.5167 34.8358 74.5167ZM39.9002 80.2688V80.4876C39.9002 81.2935 40.0079 82.0473 40.2232 82.7489C40.4386 83.4436 40.7408 84.048 41.1298 84.5621C41.5189 85.0762 41.9878 85.4791 42.5366 85.7709C43.0924 86.0626 43.7106 86.2085 44.3915 86.2085C45.0862 86.2085 45.694 86.0904 46.2151 85.8542C46.7361 85.618 47.1842 85.2707 47.5593 84.8122L47.6427 86.0001H49.4142V69.9941H47.4864V75.8401C47.1182 75.4094 46.6805 75.0829 46.1734 74.8605C45.6732 74.6313 45.0862 74.5167 44.4123 74.5167C43.7245 74.5167 43.1028 74.6591 42.547 74.9439C41.9913 75.2287 41.5189 75.6247 41.1298 76.1319C40.7338 76.639 40.4282 77.2469 40.2128 77.9555C40.0044 78.6571 39.9002 79.4282 39.9002 80.2688ZM41.828 80.4876V80.2688C41.828 79.72 41.887 79.199 42.0051 78.7057C42.1232 78.2055 42.3073 77.7644 42.5574 77.3823C42.8006 77.0072 43.1132 76.7085 43.4953 76.4862C43.8843 76.2638 44.3498 76.1527 44.8916 76.1527C45.5238 76.1527 46.0518 76.3021 46.4756 76.6008C46.8993 76.8926 47.2363 77.2677 47.4864 77.7262V82.9573C47.2363 83.4506 46.8993 83.8431 46.4756 84.1348C46.0518 84.4266 45.5169 84.5725 44.8708 84.5725C44.3359 84.5725 43.8774 84.4648 43.4953 84.2495C43.1132 84.0272 42.8006 83.7284 42.5574 83.3533C42.3073 82.9782 42.1232 82.544 42.0051 82.0507C41.887 81.5575 41.828 81.0365 41.828 80.4876ZM54.1659 86.0001H55.6873L57.4276 79.0913L57.7089 77.3406L58.0007 79.0913L59.7618 86.0001H61.2832L63.6799 74.7251H61.9709L60.7205 81.9153L60.4391 83.6868L60.1369 81.9153L58.3446 74.7251H57.1045L55.3018 81.9153L55.0204 83.5305L54.7912 81.9153L53.4782 74.7251H51.7692L54.1659 86.0001ZM73.3085 86.0001H75.3197V85.8334C75.1946 85.5208 75.0974 85.1561 75.0279 84.7392C74.9584 84.3155 74.9237 83.916 74.9237 83.5409V78.2993C74.9237 77.6671 74.8091 77.1149 74.5798 76.6425C74.3506 76.1701 74.0379 75.7741 73.642 75.4545C73.239 75.1419 72.7632 74.9092 72.2143 74.7563C71.6655 74.5966 71.0716 74.5167 70.4324 74.5167C69.7308 74.5167 69.1021 74.6139 68.5463 74.8084C67.9975 75.003 67.532 75.2565 67.1499 75.5691C66.7609 75.8887 66.4622 76.2465 66.2538 76.6425C66.0523 77.0384 65.9481 77.4414 65.9412 77.8512H67.8794C67.8794 77.615 67.935 77.3893 68.0461 77.1739C68.1642 76.9516 68.3275 76.7606 68.5359 76.6008C68.7443 76.441 68.9979 76.3125 69.2966 76.2152C69.6023 76.118 69.9461 76.0693 70.3282 76.0693C70.7381 76.0693 71.1063 76.1214 71.4328 76.2256C71.7663 76.3298 72.0476 76.4757 72.2769 76.6633C72.5061 76.8578 72.6833 77.0905 72.8083 77.3615C72.9334 77.6324 72.9959 77.9381 72.9959 78.2785V79.1642H70.8909C70.1059 79.1642 69.3938 79.2407 68.7547 79.3935C68.1225 79.5463 67.5807 79.7756 67.1291 80.0812C66.6775 80.3939 66.3267 80.7829 66.0766 81.2483C65.8335 81.7138 65.7119 82.2557 65.7119 82.874C65.7119 83.3464 65.8022 83.7875 65.9828 84.1974C66.1704 84.6003 66.4344 84.9476 66.7748 85.2394C67.1083 85.5381 67.5147 85.7743 67.994 85.948C68.4803 86.1217 69.0222 86.2085 69.6196 86.2085C69.9878 86.2085 70.3352 86.1703 70.6617 86.0939C70.9882 86.0175 71.2973 85.9133 71.5891 85.7813C71.8739 85.6493 72.1344 85.4965 72.3706 85.3228C72.6138 85.1491 72.8326 84.965 73.0271 84.7705C73.048 85.0067 73.0792 85.2359 73.1209 85.4583C73.1696 85.6736 73.2321 85.8542 73.3085 86.0001ZM69.901 84.5308C69.5258 84.5308 69.1959 84.4822 68.911 84.3849C68.6262 84.2877 68.39 84.1522 68.2024 83.9785C68.0149 83.8118 67.8724 83.6103 67.7752 83.3741C67.6849 83.1379 67.6397 82.8809 67.6397 82.603C67.6397 82.3112 67.6918 82.0507 67.796 81.8215C67.9072 81.5922 68.067 81.3942 68.2754 81.2275C68.5671 80.9913 68.9597 80.8176 69.4529 80.7065C69.9531 80.5884 70.5366 80.5293 71.2035 80.5293H72.9959V82.8114C72.8847 83.0337 72.7319 83.2491 72.5374 83.4575C72.3429 83.659 72.1136 83.8396 71.8496 83.9994C71.5787 84.1592 71.28 84.2877 70.9535 84.3849C70.6269 84.4822 70.2761 84.5308 69.901 84.5308ZM86.1049 74.5167C85.2852 74.5167 84.5523 74.6973 83.9062 75.0585C83.2671 75.4128 82.7183 75.8991 82.2598 76.5174L82.2493 76.2361L82.166 74.7251H80.332V86.0001H82.2702V78.7683C82.3952 78.4209 82.5515 78.1083 82.7391 77.8304C82.9336 77.5456 83.1594 77.3059 83.4164 77.1114C83.7013 76.8891 84.0347 76.7224 84.4168 76.6112C84.7989 76.4931 85.2261 76.4341 85.6985 76.4341C86.0667 76.4341 86.4176 76.4549 86.751 76.4966C87.0914 76.5313 87.4492 76.5904 87.8243 76.6737L88.0849 74.7876C87.8903 74.7042 87.5986 74.6382 87.2095 74.5896C86.8274 74.541 86.4592 74.5167 86.1049 74.5167ZM96.5151 86.2085C97.6127 86.2085 98.5332 85.9897 99.2765 85.552C100.027 85.1074 100.59 84.6003 100.965 84.0306L99.7871 83.1136C99.4328 83.5721 98.9882 83.9403 98.4533 84.2182C97.9184 84.4961 97.307 84.635 96.6193 84.635C96.0983 84.635 95.6224 84.5378 95.1917 84.3433C94.761 84.1487 94.3928 83.8813 94.0871 83.5409C93.7884 83.2213 93.5522 82.8531 93.3785 82.4363C93.2118 82.0195 93.1041 81.5367 93.0555 80.9878V80.9149H101.111V80.05C101.111 79.265 101.01 78.5355 100.808 77.8617C100.614 77.1878 100.315 76.6008 99.9122 76.1006C99.5093 75.6074 99.0021 75.2218 98.3908 74.9439C97.7864 74.6591 97.0778 74.5167 96.265 74.5167C95.6189 74.5167 94.9867 74.6487 94.3684 74.9126C93.7571 75.1766 93.2118 75.5553 92.7324 76.0485C92.2461 76.5487 91.8571 77.16 91.5653 77.8825C91.2735 78.5981 91.1277 79.4109 91.1277 80.3209V80.7586C91.1277 81.5436 91.2596 82.2696 91.5236 82.9365C91.7876 83.6034 92.1558 84.18 92.6282 84.6663C93.1006 85.1526 93.6668 85.5312 94.3268 85.8021C94.9937 86.0731 95.7231 86.2085 96.5151 86.2085ZM96.265 76.1006C96.7582 76.1006 97.182 76.1909 97.5363 76.3715C97.8975 76.5522 98.1963 76.7883 98.4325 77.0801C98.6687 77.3719 98.8528 77.7193 98.9848 78.1222C99.1167 78.5182 99.1827 78.8898 99.1827 79.2372V79.331H93.118C93.1944 78.8099 93.3264 78.3514 93.514 77.9555C93.7085 77.5525 93.9447 77.2121 94.2226 76.9342C94.5004 76.6633 94.8131 76.4584 95.1604 76.3194C95.5078 76.1735 95.876 76.1006 96.265 76.1006Z" fill="#ECEDFF"/>
<path d="M128.956 86.0003V70.828H127.133V77.3512H120.912V70.828H119.098V86.0003H120.912V78.9873H127.133V86.0003H128.956ZM139.689 86.0003H141.44V74.7253H139.502V82.8116C139.398 83.0548 139.266 83.2805 139.106 83.489C138.953 83.6904 138.772 83.8641 138.564 84.01C138.314 84.1906 138.019 84.333 137.678 84.4372C137.338 84.5345 136.952 84.5831 136.522 84.5831C136.153 84.5831 135.827 84.5345 135.542 84.4372C135.264 84.34 135.028 84.1698 134.833 83.9266C134.639 83.6904 134.493 83.3709 134.396 82.9679C134.299 82.565 134.25 82.0579 134.25 81.4465V74.7253H132.322V81.4257C132.322 82.2663 132.412 82.9888 132.593 83.5932C132.781 84.1906 133.045 84.6838 133.385 85.0729C133.725 85.4619 134.135 85.7502 134.615 85.9378C135.094 86.1184 135.629 86.2087 136.219 86.2087C136.956 86.2087 137.605 86.0559 138.168 85.7502C138.731 85.4376 139.2 85.0034 139.575 84.4476L139.689 86.0003ZM154.633 80.4878V80.269C154.633 79.6785 154.584 79.1193 154.487 78.5913C154.389 78.0564 154.247 77.5701 154.059 77.1324C153.879 76.7434 153.67 76.3926 153.434 76.0799C153.198 75.7604 152.931 75.4894 152.632 75.2671C152.298 75.0309 151.927 74.8468 151.517 74.7148C151.107 74.5828 150.659 74.5169 150.173 74.5169C149.784 74.5169 149.422 74.5551 149.089 74.6315C148.755 74.7079 148.45 74.819 148.172 74.9649C147.949 75.083 147.741 75.2254 147.547 75.3922C147.352 75.552 147.175 75.7326 147.015 75.934V69.9943H145.087V86.0003H146.859L146.953 84.7186C147.078 84.8784 147.21 85.0242 147.349 85.1562C147.488 85.2882 147.633 85.4098 147.786 85.521C148.106 85.7433 148.464 85.9135 148.86 86.0316C149.262 86.1497 149.707 86.2087 150.193 86.2087C150.617 86.2087 151.01 86.1566 151.371 86.0524C151.739 85.9482 152.076 85.8023 152.382 85.6147C152.805 85.3438 153.167 85.0034 153.465 84.5935C153.771 84.1767 154.018 83.7078 154.205 83.1868C154.344 82.7908 154.448 82.367 154.518 81.9154C154.594 81.4569 154.633 80.9811 154.633 80.4878ZM152.705 80.269V80.4878C152.705 80.8213 152.684 81.1478 152.642 81.4674C152.601 81.7869 152.535 82.0856 152.444 82.3635C152.333 82.7317 152.184 83.0652 151.996 83.3639C151.809 83.6626 151.576 83.9092 151.298 84.1038C151.09 84.2566 150.853 84.3747 150.589 84.4581C150.325 84.5345 150.034 84.5727 149.714 84.5727C149.381 84.5727 149.075 84.531 148.797 84.4476C148.519 84.3573 148.269 84.2323 148.047 84.0725C147.824 83.9127 147.626 83.7286 147.453 83.5202C147.286 83.3049 147.14 83.0721 147.015 82.822V77.8931C147.133 77.643 147.276 77.4138 147.442 77.2054C147.616 76.99 147.814 76.8024 148.036 76.6426C148.252 76.4898 148.498 76.3717 148.776 76.2883C149.054 76.198 149.36 76.1529 149.693 76.1529C149.999 76.1529 150.277 76.1876 150.527 76.2571C150.777 76.3266 151.003 76.4238 151.204 76.5489C151.496 76.7225 151.743 76.9622 151.944 77.2679C152.146 77.5735 152.309 77.9105 152.434 78.2787C152.524 78.5774 152.59 78.897 152.632 79.2374C152.68 79.5708 152.705 79.9147 152.705 80.269Z" fill="url(#paint4_linear_28_651)"/>
<path d="M167.709 66.4044H167.065C167.065 66.5411 167.049 66.6603 167.018 66.7618C166.987 66.8595 166.94 66.9415 166.877 67.0079C166.815 67.0782 166.731 67.131 166.625 67.1661C166.52 67.1974 166.395 67.213 166.25 67.213C166.102 67.213 165.971 67.1837 165.858 67.1251C165.748 67.0665 165.657 66.9865 165.582 66.8849C165.508 66.7833 165.453 66.6642 165.418 66.5275C165.383 66.3907 165.366 66.2423 165.366 66.0822V65.5665C165.366 65.4103 165.383 65.2638 165.418 65.1271C165.453 64.9865 165.508 64.8654 165.582 64.7638C165.657 64.6661 165.748 64.588 165.858 64.5294C165.971 64.4708 166.102 64.4415 166.25 64.4415C166.395 64.4415 166.52 64.4591 166.625 64.4943C166.731 64.5255 166.817 64.5763 166.883 64.6466C166.946 64.713 166.993 64.797 167.024 64.8986C167.055 64.9962 167.071 65.1115 167.071 65.2443H167.715C167.715 65.0333 167.686 64.8458 167.627 64.6818C167.569 64.5177 167.485 64.3771 167.375 64.2599C167.25 64.131 167.092 64.0333 166.901 63.9669C166.713 63.9005 166.496 63.8673 166.25 63.8673C166.008 63.8673 165.793 63.9103 165.606 63.9962C165.418 64.0822 165.26 64.2013 165.131 64.3536C165.002 64.506 164.903 64.6876 164.832 64.8986C164.762 65.1056 164.727 65.3302 164.727 65.5724V66.0822C164.727 66.3282 164.762 66.5548 164.832 66.7618C164.903 66.9689 165.002 67.1466 165.131 67.295C165.26 67.4474 165.418 67.5665 165.606 67.6525C165.793 67.7384 166.008 67.7814 166.25 67.7814C166.493 67.7814 166.707 67.7501 166.895 67.6876C167.082 67.6212 167.239 67.5255 167.364 67.4005C167.477 67.2872 167.563 67.1466 167.621 66.9786C167.68 66.8107 167.709 66.6193 167.709 66.4044ZM163.696 65.8243C163.696 65.4454 163.762 65.09 163.895 64.7579C164.028 64.422 164.211 64.129 164.446 63.879C164.68 63.629 164.955 63.4337 165.272 63.2931C165.592 63.1486 165.938 63.0763 166.309 63.0763C166.676 63.0763 167.018 63.1486 167.334 63.2931C167.655 63.4337 167.932 63.629 168.166 63.879C168.401 64.129 168.584 64.422 168.717 64.7579C168.85 65.09 168.916 65.4454 168.916 65.8243C168.916 66.2072 168.85 66.5665 168.717 66.9025C168.584 67.2384 168.401 67.5314 168.166 67.7814C167.932 68.0353 167.655 68.2365 167.334 68.3849C167.018 68.5294 166.676 68.6017 166.309 68.6017C165.938 68.6017 165.592 68.5294 165.272 68.3849C164.955 68.2404 164.68 68.0411 164.446 67.7872C164.211 67.5372 164.028 67.2443 163.895 66.9083C163.762 66.5685 163.696 66.2072 163.696 65.8243ZM163.186 65.8243C163.186 66.2814 163.266 66.7111 163.426 67.1134C163.586 67.5118 163.807 67.8595 164.088 68.1564C164.366 68.4572 164.694 68.6935 165.073 68.8654C165.455 69.0372 165.868 69.1232 166.309 69.1232C166.75 69.1232 167.161 69.0372 167.539 68.8654C167.918 68.6935 168.248 68.4572 168.53 68.1564C168.807 67.8595 169.026 67.5118 169.186 67.1134C169.346 66.7111 169.426 66.2814 169.426 65.8243C169.426 65.3673 169.346 64.9396 169.186 64.5411C169.026 64.1427 168.807 63.795 168.53 63.4982C168.248 63.2052 167.918 62.9728 167.539 62.8009C167.161 62.629 166.75 62.5431 166.309 62.5431C165.891 62.5431 165.493 62.6251 165.114 62.7892C164.735 62.9493 164.405 63.174 164.123 63.463C163.838 63.7521 163.612 64.0997 163.444 64.506C163.276 64.9083 163.19 65.3478 163.186 65.8243Z" fill="white"/>
<defs>
<linearGradient id="paint0_linear_28_651" x1="57.2751" y1="-570" x2="219.663" y2="-555.787" gradientUnits="userSpaceOnUse">
<stop stop-color="#11E5B3"/>
<stop offset="1" stop-color="#683DE5"/>
</linearGradient>
<linearGradient id="paint1_linear_28_651" x1="57.2751" y1="-570" x2="219.663" y2="-555.787" gradientUnits="userSpaceOnUse">
<stop stop-color="#11E5B3"/>
<stop offset="1" stop-color="#683DE5"/>
</linearGradient>
<linearGradient id="paint2_linear_28_651" x1="57.2751" y1="-570" x2="219.663" y2="-555.787" gradientUnits="userSpaceOnUse">
<stop stop-color="#11E5B3"/>
<stop offset="1" stop-color="#683DE5"/>
</linearGradient>
<linearGradient id="paint3_linear_28_651" x1="57.2751" y1="-570" x2="219.663" y2="-555.787" gradientUnits="userSpaceOnUse">
<stop stop-color="#11E5B3"/>
<stop offset="1" stop-color="#683DE5"/>
</linearGradient>
<linearGradient id="paint4_linear_28_651" x1="131.818" y1="-38.9674" x2="176.582" y2="-32.926" gradientUnits="userSpaceOnUse">
<stop stop-color="#11E5B3"/>
<stop offset="1" stop-color="#683DE5"/>
</linearGradient>
</defs>
</svg>
