<svg width="149" height="155" viewBox="0 0 149 155" fill="none" xmlns="http://www.w3.org/2000/svg">
<path d="M0.337402 37.1571L28.3974 21.8096V59.0563L68.2123 80.8658V111.561L0.337402 74.4037V37.1571Z" fill="url(#paint0_linear_56_3)"/>
<path d="M0.337402 117.933V87.3279L68.2123 124.395V155L0.337402 117.933Z" fill="url(#paint1_linear_56_3)"/>
<path d="M80.3463 74.2242L40.1523 52.2352V15.3475L68.2123 0.00012207V36.8878L108.406 58.9665V139.742L80.3463 155V74.2242Z" fill="url(#paint2_linear_56_3)"/>
<path d="M120.161 52.5045L108.217 45.9526L136.277 30.6052L148.221 37.0936V117.933L120.161 133.28V52.5045Z" fill="url(#paint3_linear_56_3)"/>
<defs>
<linearGradient id="paint0_linear_56_3" x1="51.2751" y1="-570" x2="213.663" y2="-555.787" gradientUnits="userSpaceOnUse">
<stop stop-color="#11E5B3"/>
<stop offset="1" stop-color="#683DE5"/>
</linearGradient>
<linearGradient id="paint1_linear_56_3" x1="51.2751" y1="-570" x2="213.663" y2="-555.787" gradientUnits="userSpaceOnUse">
<stop stop-color="#11E5B3"/>
<stop offset="1" stop-color="#683DE5"/>
</linearGradient>
<linearGradient id="paint2_linear_56_3" x1="51.2751" y1="-570" x2="213.663" y2="-555.787" gradientUnits="userSpaceOnUse">
<stop stop-color="#11E5B3"/>
<stop offset="1" stop-color="#683DE5"/>
</linearGradient>
<linearGradient id="paint3_linear_56_3" x1="51.2751" y1="-570" x2="213.663" y2="-555.787" gradientUnits="userSpaceOnUse">
<stop stop-color="#11E5B3"/>
<stop offset="1" stop-color="#683DE5"/>
</linearGradient>
</defs>
</svg>
